solid tenoxvga-bottom-11
facet normal 0.0 -1.0 0.0
outer loop
vertex 121.270393935093 51.4683184326614 10.16
vertex 35.6723939350934 51.4683184326614 -1.524
vertex 121.270393935093 51.4683184326614 -1.524
endloop
endfacet
facet normal 0.0 -1.0 0.0
outer loop
vertex 35.6723939350934 51.4683184326614 -1.524
vertex 121.270393935093 51.4683184326614 10.16
vertex 81.3923939350933 51.4683184326614 5.07999999999999
endloop
endfacet
facet normal 0.0 -1.0 0.0
outer loop
vertex 81.3923939350933 51.4683184326614 5.07999999999999
vertex 121.270393935093 51.4683184326614 10.16
vertex 81.3923939350933 51.4683184326614 10.16
endloop
endfacet
facet normal 0.0 -1.0 0.0
outer loop
vertex 35.6723939350934 51.4683184326614 -1.524
vertex 72.2483939350934 51.4683184326614 5.08
vertex 35.6723939350934 51.4683184326614 10.16
endloop
endfacet
facet normal 0.0 -1.0 0.0
outer loop
vertex 72.2483939350934 51.4683184326614 5.08
vertex 35.6723939350934 51.4683184326614 -1.524
vertex 81.3923939350933 51.4683184326614 5.07999999999999
endloop
endfacet
facet normal 0.0 -1.0 0.0
outer loop
vertex 35.6723939350934 51.4683184326614 10.16
vertex 72.2483939350934 51.4683184326614 5.08
vertex 72.2483939350934 51.4683184326614 10.16
endloop
endfacet
facet normal -1.0 4.89033739216116e-017 1.3307467760918e-016
outer loop
vertex 35.6723939350934 93.1243184326615 10.16
vertex 35.6723939350934 87.5363184326615 5.08
vertex 35.6723939350934 87.5363184326615 10.16
endloop
endfacet
facet normal -1.0 4.89033739216116e-017 1.3307467760918e-016
outer loop
vertex 35.6723939350934 56.2943184326612 10.16
vertex 35.6723939350934 51.4683184326614 -1.524
vertex 35.6723939350934 51.4683184326614 10.16
endloop
endfacet
facet normal -1.0 4.89033739216116e-017 1.3307467760918e-016
outer loop
vertex 35.6723939350934 51.4683184326614 -1.524
vertex 35.6723939350934 56.2943184326612 10.16
vertex 35.6723939350934 56.2943184326612 5.08
endloop
endfacet
facet normal -1.0 4.89033739216116e-017 1.3307467760918e-016
outer loop
vertex 35.6723939350934 51.4683184326614 -1.524
vertex 35.6723939350934 56.2943184326612 5.08
vertex 35.6723939350934 93.1243184326615 -1.524
endloop
endfacet
facet normal -1.0 4.89033739216116e-017 1.3307467760918e-016
outer loop
vertex 35.6723939350934 93.1243184326615 -1.524
vertex 35.6723939350934 56.2943184326612 5.08
vertex 35.6723939350934 87.5363184326615 5.08
endloop
endfacet
facet normal -1.0 4.89033739216116e-017 1.3307467760918e-016
outer loop
vertex 35.6723939350934 93.1243184326615 -1.524
vertex 35.6723939350934 87.5363184326615 5.08
vertex 35.6723939350934 93.1243184326615 10.16
endloop
endfacet
facet normal -2.98077491869205e-016 1.95957122983208e-016 1.0
outer loop
vertex 121.270393935093 51.4683184326614 10.16
vertex 81.3923939350933 52.7383184326614 10.16
vertex 81.3923939350933 51.4683184326614 10.16
endloop
endfacet
facet normal -2.98077491869205e-016 1.95957122983208e-016 1.0
outer loop
vertex 81.3923939350933 52.7383184326614 10.16
vertex 121.270393935093 51.4683184326614 10.16
vertex 120.254393935093 52.7383184326614 10.16
endloop
endfacet
facet normal -2.98077491869205e-016 1.95957122983208e-016 1.0
outer loop
vertex 120.254393935093 52.7383184326614 10.16
vertex 121.270393935093 51.4683184326614 10.16
vertex 120.254393935093 56.2943184326615 10.16
endloop
endfacet
facet normal -2.98077491869205e-016 1.95957122983208e-016 1.0
outer loop
vertex 120.254393935093 56.2943184326615 10.16
vertex 121.270393935093 51.4683184326614 10.16
vertex 121.270393935093 56.2943184326615 10.16
endloop
endfacet
facet normal 0.0 0.0 1.0
outer loop
vertex 36.6883939350934 56.2943184326612 5.08
vertex 35.6723939350934 87.5363184326615 5.08
vertex 35.6723939350934 56.2943184326612 5.08
endloop
endfacet
facet normal 0.0 0.0 1.0
outer loop
vertex 35.6723939350934 87.5363184326615 5.08
vertex 36.6883939350934 56.2943184326612 5.08
vertex 36.6883939350934 87.5363184326615 5.08
endloop
endfacet
facet normal 0.0 1.0 0.0
outer loop
vertex 35.6723939350934 56.2943184326612 10.16
vertex 36.6883939350934 56.2943184326612 5.08
vertex 35.6723939350934 56.2943184326612 5.08
endloop
endfacet
facet normal 0.0 1.0 0.0
outer loop
vertex 36.6883939350934 56.2943184326612 5.08
vertex 35.6723939350934 56.2943184326612 10.16
vertex 36.6883939350934 56.2943184326612 10.16
endloop
endfacet
facet normal -0.0 -1.0 -0.0
outer loop
vertex 36.6883939350934 87.5363184326615 10.16
vertex 35.6723939350934 87.5363184326615 5.08
vertex 36.6883939350934 87.5363184326615 5.08
endloop
endfacet
facet normal -0.0 -1.0 -0.0
outer loop
vertex 35.6723939350934 87.5363184326615 5.08
vertex 36.6883939350934 87.5363184326615 10.16
vertex 35.6723939350934 87.5363184326615 10.16
endloop
endfacet
facet normal 1.0 -5.07101512018846e-017 -2.75206432948195e-016
outer loop
vertex 36.6883939350934 52.7383184326614 1.524
vertex 36.6883939350934 56.2943184326612 5.08
vertex 36.6883939350934 52.7383184326614 10.16
endloop
endfacet
facet normal 1.0 -5.07101512018846e-017 -2.75206432948195e-016
outer loop
vertex 36.6883939350934 56.2943184326612 5.08
vertex 36.6883939350934 52.7383184326614 1.524
vertex 36.6883939350934 91.8543184326615 1.524
endloop
endfacet
facet normal 1.0 -5.07101512018846e-017 -2.75206432948195e-016
outer loop
vertex 36.6883939350934 56.2943184326612 5.08
vertex 36.6883939350934 91.8543184326615 1.524
vertex 36.6883939350934 87.5363184326615 5.08
endloop
endfacet
facet normal 1.0 -5.07101512018846e-017 -2.75206432948195e-016
outer loop
vertex 36.6883939350934 87.5363184326615 5.08
vertex 36.6883939350934 91.8543184326615 1.524
vertex 36.6883939350934 87.5363184326615 10.16
endloop
endfacet
facet normal 1.0 -5.07101512018846e-017 -2.75206432948195e-016
outer loop
vertex 36.6883939350934 87.5363184326615 10.16
vertex 36.6883939350934 91.8543184326615 1.524
vertex 36.6883939350934 91.8543184326615 10.16
endloop
endfacet
facet normal 1.0 -5.07101512018846e-017 -2.75206432948195e-016
outer loop
vertex 36.6883939350934 56.2943184326612 10.16
vertex 36.6883939350934 52.7383184326614 10.16
vertex 36.6883939350934 56.2943184326612 5.08
endloop
endfacet
facet normal 1.07938349616336e-015 1.85037170770863e-015 1.0
outer loop
vertex 81.3923939350933 51.4683184326614 5.07999999999999
vertex 72.2483939350934 52.7383184326614 5.08
vertex 72.2483939350934 51.4683184326614 5.08
endloop
endfacet
facet normal 1.07938349616336e-015 1.85037170770863e-015 1.0
outer loop
vertex 72.2483939350934 52.7383184326614 5.08
vertex 81.3923939350933 51.4683184326614 5.07999999999999
vertex 81.3923939350933 52.7383184326614 5.07999999999998
endloop
endfacet
facet normal -1.0 3.99452136613661e-030 1.07938349616336e-015
outer loop
vertex 81.3923939350933 52.7383184326614 10.16
vertex 81.3923939350933 51.4683184326614 5.07999999999999
vertex 81.3923939350933 51.4683184326614 10.16
endloop
endfacet
facet normal -1.0 3.99452136613661e-030 1.07938349616336e-015
outer loop
vertex 81.3923939350933 51.4683184326614 5.07999999999999
vertex 81.3923939350933 52.7383184326614 10.16
vertex 81.3923939350933 52.7383184326614 5.07999999999998
endloop
endfacet
facet normal 1.0 -0.0 -1.07938349616336e-015
outer loop
vertex 72.2483939350934 52.7383184326614 5.08
vertex 72.2483939350934 51.4683184326614 10.16
vertex 72.2483939350934 51.4683184326614 5.08
endloop
endfacet
facet normal 1.0 -0.0 -1.07938349616336e-015
outer loop
vertex 72.2483939350934 51.4683184326614 10.16
vertex 72.2483939350934 52.7383184326614 5.08
vertex 72.2483939350934 52.7383184326614 10.16
endloop
endfacet
facet normal -0.0 1.0 -0.0
outer loop
vertex 36.6883939350934 52.7383184326614 1.524
vertex 72.2483939350934 52.7383184326614 5.08
vertex 120.254393935093 52.7383184326614 1.524
endloop
endfacet
facet normal -0.0 1.0 -0.0
outer loop
vertex 72.2483939350934 52.7383184326614 5.08
vertex 36.6883939350934 52.7383184326614 1.524
vertex 36.6883939350934 52.7383184326614 10.16
endloop
endfacet
facet normal -0.0 1.0 -0.0
outer loop
vertex 120.254393935093 52.7383184326614 1.524
vertex 72.2483939350934 52.7383184326614 5.08
vertex 81.3923939350933 52.7383184326614 5.07999999999998
endloop
endfacet
facet normal -0.0 1.0 -0.0
outer loop
vertex 72.2483939350934 52.7383184326614 5.08
vertex 36.6883939350934 52.7383184326614 10.16
vertex 72.2483939350934 52.7383184326614 10.16
endloop
endfacet
facet normal -0.0 1.0 -0.0
outer loop
vertex 81.3923939350933 52.7383184326614 5.07999999999998
vertex 120.254393935093 52.7383184326614 10.16
vertex 120.254393935093 52.7383184326614 1.524
endloop
endfacet
facet normal -0.0 1.0 -0.0
outer loop
vertex 120.254393935093 52.7383184326614 10.16
vertex 81.3923939350933 52.7383184326614 5.07999999999998
vertex 81.3923939350933 52.7383184326614 10.16
endloop
endfacet
facet normal 3.91487631684156e-017 -1.14733480108901e-018 1.0
outer loop
vertex 35.6723939350934 51.4683184326614 10.16
vertex 36.6883939350934 52.7383184326614 10.16
vertex 35.6723939350934 56.2943184326612 10.16
endloop
endfacet
facet normal 3.91487631684156e-017 -1.14733480108901e-018 1.0
outer loop
vertex 36.6883939350934 52.7383184326614 10.16
vertex 35.6723939350934 51.4683184326614 10.16
vertex 72.2483939350934 51.4683184326614 10.16
endloop
endfacet
facet normal 3.91487631684156e-017 -1.14733480108901e-018 1.0
outer loop
vertex 36.6883939350934 52.7383184326614 10.16
vertex 72.2483939350934 51.4683184326614 10.16
vertex 72.2483939350934 52.7383184326614 10.16
endloop
endfacet
facet normal 3.91487631684156e-017 -1.14733480108901e-018 1.0
outer loop
vertex 36.6883939350934 56.2943184326612 10.16
vertex 35.6723939350934 56.2943184326612 10.16
vertex 36.6883939350934 52.7383184326614 10.16
endloop
endfacet
facet normal 1.0 -0.0 -0.0
outer loop
vertex 40.4983939350934 88.8063184326615 -1.77382651945885e-014
vertex 40.4983939350934 55.7863184326614 1.52399999999999
vertex 40.4983939350934 55.7863184326614 -1.77382651945885e-014
endloop
endfacet
facet normal 1.0 -0.0 -0.0
outer loop
vertex 40.4983939350934 55.7863184326614 1.52399999999999
vertex 40.4983939350934 88.8063184326615 -1.77382651945885e-014
vertex 40.4983939350934 88.8063184326615 1.52399999999999
endloop
endfacet
facet normal 0.0 0.0 -1.0
outer loop
vertex 121.270393935093 93.1243184326615 -1.524
vertex 35.6723939350934 51.4683184326614 -1.524
vertex 35.6723939350934 93.1243184326615 -1.524
endloop
endfacet
facet normal 0.0 0.0 -1.0
outer loop
vertex 35.6723939350934 51.4683184326614 -1.524
vertex 121.270393935093 93.1243184326615 -1.524
vertex 121.270393935093 51.4683184326614 -1.524
endloop
endfacet
facet normal 0.0 1.0 0.0
outer loop
vertex 35.6723939350934 93.1243184326615 10.16
vertex 121.270393935093 93.1243184326615 -1.524
vertex 35.6723939350934 93.1243184326615 -1.524
endloop
endfacet
facet normal 0.0 1.0 0.0
outer loop
vertex 121.270393935093 93.1243184326615 -1.524
vertex 35.6723939350934 93.1243184326615 10.16
vertex 121.270393935093 93.1243184326615 10.16
endloop
endfacet
facet normal 1.0 0.0 0.0
outer loop
vertex 121.270393935093 51.4683184326614 -1.524
vertex 121.270393935093 56.2943184326615 4.826
vertex 121.270393935093 51.4683184326614 10.16
endloop
endfacet
facet normal 1.0 0.0 0.0
outer loop
vertex 121.270393935093 56.2943184326615 4.826
vertex 121.270393935093 51.4683184326614 -1.524
vertex 121.270393935093 93.1243184326615 -1.524
endloop
endfacet
facet normal 1.0 0.0 0.0
outer loop
vertex 121.270393935093 56.2943184326615 4.826
vertex 121.270393935093 93.1243184326615 -1.524
vertex 121.270393935093 87.5363184326614 4.826
endloop
endfacet
facet normal 1.0 0.0 0.0
outer loop
vertex 121.270393935093 87.5363184326614 4.826
vertex 121.270393935093 93.1243184326615 -1.524
vertex 121.270393935093 87.5363184326614 10.16
endloop
endfacet
facet normal 1.0 0.0 0.0
outer loop
vertex 121.270393935093 87.5363184326614 10.16
vertex 121.270393935093 93.1243184326615 -1.524
vertex 121.270393935093 93.1243184326615 10.16
endloop
endfacet
facet normal 1.0 0.0 0.0
outer loop
vertex 121.270393935093 56.2943184326615 10.16
vertex 121.270393935093 51.4683184326614 10.16
vertex 121.270393935093 56.2943184326615 4.826
endloop
endfacet
facet normal -0.0 -0.0 1.0
outer loop
vertex 121.270393935093 56.2943184326615 4.826
vertex 120.254393935093 87.5363184326614 4.826
vertex 120.254393935093 56.2943184326615 4.826
endloop
endfacet
facet normal -0.0 -0.0 1.0
outer loop
vertex 120.254393935093 87.5363184326614 4.826
vertex 121.270393935093 56.2943184326615 4.826
vertex 121.270393935093 87.5363184326614 4.826
endloop
endfacet
facet normal 0.0 1.0 0.0
outer loop
vertex 120.254393935093 56.2943184326615 10.16
vertex 121.270393935093 56.2943184326615 4.826
vertex 120.254393935093 56.2943184326615 4.826
endloop
endfacet
facet normal 0.0 1.0 0.0
outer loop
vertex 121.270393935093 56.2943184326615 4.826
vertex 120.254393935093 56.2943184326615 10.16
vertex 121.270393935093 56.2943184326615 10.16
endloop
endfacet
facet normal 0.0 -1.0 0.0
outer loop
vertex 120.254393935093 91.8543184326615 10.16
vertex 36.6883939350934 91.8543184326615 1.524
vertex 120.254393935093 91.8543184326615 1.524
endloop
endfacet
facet normal 0.0 -1.0 0.0
outer loop
vertex 36.6883939350934 91.8543184326615 1.524
vertex 120.254393935093 91.8543184326615 10.16
vertex 36.6883939350934 91.8543184326615 10.16
endloop
endfacet
facet normal -1.0 0.0 0.0
outer loop
vertex 120.254393935093 91.8543184326615 10.16
vertex 120.254393935093 87.5363184326614 4.826
vertex 120.254393935093 87.5363184326614 10.16
endloop
endfacet
facet normal -1.0 0.0 0.0
outer loop
vertex 120.254393935093 56.2943184326615 10.16
vertex 120.254393935093 52.7383184326614 1.524
vertex 120.254393935093 52.7383184326614 10.16
endloop
endfacet
facet normal -1.0 0.0 0.0
outer loop
vertex 120.254393935093 52.7383184326614 1.524
vertex 120.254393935093 56.2943184326615 10.16
vertex 120.254393935093 56.2943184326615 4.826
endloop
endfacet
facet normal -1.0 0.0 0.0
outer loop
vertex 120.254393935093 52.7383184326614 1.524
vertex 120.254393935093 56.2943184326615 4.826
vertex 120.254393935093 91.8543184326615 1.524
endloop
endfacet
facet normal -1.0 0.0 0.0
outer loop
vertex 120.254393935093 91.8543184326615 1.524
vertex 120.254393935093 56.2943184326615 4.826
vertex 120.254393935093 87.5363184326614 4.826
endloop
endfacet
facet normal -1.0 0.0 0.0
outer loop
vertex 120.254393935093 91.8543184326615 1.524
vertex 120.254393935093 87.5363184326614 4.826
vertex 120.254393935093 91.8543184326615 10.16
endloop
endfacet
facet normal -0.0 -0.0 1.0
outer loop
vertex 36.6883939350934 52.7383184326614 1.524
vertex 40.4983939350934 55.7863184326614 1.52399999999999
vertex 36.6883939350934 91.8543184326615 1.524
endloop
endfacet
facet normal -0.0 -0.0 1.0
outer loop
vertex 40.4983939350934 55.7863184326614 1.52399999999999
vertex 36.6883939350934 52.7383184326614 1.524
vertex 120.254393935093 52.7383184326614 1.524
endloop
endfacet
facet normal -0.0 -0.0 1.0
outer loop
vertex 40.4983939350934 55.7863184326614 1.52399999999999
vertex 120.254393935093 52.7383184326614 1.524
vertex 116.444393935093 55.7863184326614 1.524
endloop
endfacet
facet normal -0.0 -0.0 1.0
outer loop
vertex 116.444393935093 55.7863184326614 1.524
vertex 120.254393935093 52.7383184326614 1.524
vertex 116.444393935093 88.8063184326615 1.524
endloop
endfacet
facet normal -0.0 -0.0 1.0
outer loop
vertex 36.6883939350934 91.8543184326615 1.524
vertex 40.4983939350934 88.8063184326615 1.52399999999999
vertex 120.254393935093 91.8543184326615 1.524
endloop
endfacet
facet normal -0.0 -0.0 1.0
outer loop
vertex 40.4983939350934 88.8063184326615 1.52399999999999
vertex 36.6883939350934 91.8543184326615 1.524
vertex 40.4983939350934 55.7863184326614 1.52399999999999
endloop
endfacet
facet normal -0.0 -0.0 1.0
outer loop
vertex 120.254393935093 91.8543184326615 1.524
vertex 40.4983939350934 88.8063184326615 1.52399999999999
vertex 116.444393935093 88.8063184326615 1.524
endloop
endfacet
facet normal -0.0 -0.0 1.0
outer loop
vertex 120.254393935093 91.8543184326615 1.524
vertex 116.444393935093 88.8063184326615 1.524
vertex 120.254393935093 52.7383184326614 1.524
endloop
endfacet
facet normal -0.0 -1.0 -0.0
outer loop
vertex 121.270393935093 87.5363184326614 10.16
vertex 120.254393935093 87.5363184326614 4.826
vertex 121.270393935093 87.5363184326614 4.826
endloop
endfacet
facet normal -0.0 -1.0 -0.0
outer loop
vertex 120.254393935093 87.5363184326614 4.826
vertex 121.270393935093 87.5363184326614 10.16
vertex 120.254393935093 87.5363184326614 10.16
endloop
endfacet
facet normal -0.0 -0.0 1.0
outer loop
vertex 121.270393935093 87.5363184326614 10.16
vertex 120.254393935093 91.8543184326615 10.16
vertex 120.254393935093 87.5363184326614 10.16
endloop
endfacet
facet normal -0.0 -0.0 1.0
outer loop
vertex 35.6723939350934 93.1243184326615 10.16
vertex 36.6883939350934 91.8543184326615 10.16
vertex 121.270393935093 93.1243184326615 10.16
endloop
endfacet
facet normal -0.0 -0.0 1.0
outer loop
vertex 36.6883939350934 91.8543184326615 10.16
vertex 35.6723939350934 93.1243184326615 10.16
vertex 35.6723939350934 87.5363184326615 10.16
endloop
endfacet
facet normal -0.0 -0.0 1.0
outer loop
vertex 36.6883939350934 91.8543184326615 10.16
vertex 35.6723939350934 87.5363184326615 10.16
vertex 36.6883939350934 87.5363184326615 10.16
endloop
endfacet
facet normal -0.0 -0.0 1.0
outer loop
vertex 121.270393935093 93.1243184326615 10.16
vertex 36.6883939350934 91.8543184326615 10.16
vertex 120.254393935093 91.8543184326615 10.16
endloop
endfacet
facet normal -0.0 -0.0 1.0
outer loop
vertex 121.270393935093 93.1243184326615 10.16
vertex 120.254393935093 91.8543184326615 10.16
vertex 121.270393935093 87.5363184326614 10.16
endloop
endfacet
facet normal 0.0006280415514675 -0.0 0.999999802781885
outer loop
vertex 116.444393935093 55.7863184326614 -0.0476972530745307
vertex 40.4983939350934 88.8063184326615 -1.77382651945885e-014
vertex 40.4983939350934 55.7863184326614 -1.77382651945885e-014
endloop
endfacet
facet normal 0.0006280415514675 -0.0 0.999999802781885
outer loop
vertex 40.4983939350934 88.8063184326615 -1.77382651945885e-014
vertex 116.444393935093 55.7863184326614 -0.0476972530745307
vertex 116.444393935093 88.8063184326615 -0.0476972530745307
endloop
endfacet
facet normal -0.0 1.0 -0.0
outer loop
vertex 40.4983939350934 55.7863184326614 -1.77382651945885e-014
vertex 116.444393935093 55.7863184326614 1.524
vertex 116.444393935093 55.7863184326614 -0.0476972530745307
endloop
endfacet
facet normal -0.0 1.0 -0.0
outer loop
vertex 116.444393935093 55.7863184326614 1.524
vertex 40.4983939350934 55.7863184326614 -1.77382651945885e-014
vertex 40.4983939350934 55.7863184326614 1.52399999999999
endloop
endfacet
facet normal -1.0 0.0 0.0
outer loop
vertex 116.444393935093 88.8063184326615 1.524
vertex 116.444393935093 55.7863184326614 -0.0476972530745307
vertex 116.444393935093 55.7863184326614 1.524
endloop
endfacet
facet normal -1.0 0.0 0.0
outer loop
vertex 116.444393935093 55.7863184326614 -0.0476972530745307
vertex 116.444393935093 88.8063184326615 1.524
vertex 116.444393935093 88.8063184326615 -0.0476972530745307
endloop
endfacet
facet normal 0.0 -1.0 0.0
outer loop
vertex 116.444393935093 88.8063184326615 1.524
vertex 40.4983939350934 88.8063184326615 -1.77382651945885e-014
vertex 116.444393935093 88.8063184326615 -0.0476972530745307
endloop
endfacet
facet normal 0.0 -1.0 0.0
outer loop
vertex 40.4983939350934 88.8063184326615 -1.77382651945885e-014
vertex 116.444393935093 88.8063184326615 1.524
vertex 40.4983939350934 88.8063184326615 1.52399999999999
endloop
endfacet
endsolid tenoxvga-bottom-11
