solid tenoxvga-top-11
facet normal 0.0 0.0 1.0
outer loop
vertex 121.270393935093 56.8023184326615 3.302
vertex 120.254393935093 88.2983184326614 3.302
vertex 120.254393935093 56.8023184326615 3.302
endloop
endfacet
facet normal 0.0 0.0 1.0
outer loop
vertex 120.254393935093 88.2983184326614 3.302
vertex 121.270393935093 56.8023184326615 3.302
vertex 121.270393935093 88.2983184326614 3.302
endloop
endfacet
facet normal -0.0 -1.0 -0.0
outer loop
vertex 121.270393935093 88.2983184326614 8.89
vertex 120.254393935093 88.2983184326614 3.302
vertex 121.270393935093 88.2983184326614 3.302
endloop
endfacet
facet normal -0.0 -1.0 -0.0
outer loop
vertex 120.254393935093 88.2983184326614 3.302
vertex 121.270393935093 88.2983184326614 8.89
vertex 120.254393935093 88.2983184326614 8.89
endloop
endfacet
facet normal 0.0 1.0 0.0
outer loop
vertex 120.254393935093 56.8023184326615 8.89
vertex 121.270393935093 56.8023184326615 3.302
vertex 120.254393935093 56.8023184326615 3.302
endloop
endfacet
facet normal 0.0 1.0 0.0
outer loop
vertex 121.270393935093 56.8023184326615 3.302
vertex 120.254393935093 56.8023184326615 8.89
vertex 121.270393935093 56.8023184326615 8.89
endloop
endfacet
facet normal 0.0 0.0 1.0
outer loop
vertex 36.6883939350934 56.8023184326612 3.30200000000001
vertex 35.6723939350934 88.2983184326615 3.30200000000001
vertex 35.6723939350934 56.8023184326612 3.30200000000001
endloop
endfacet
facet normal 0.0 0.0 1.0
outer loop
vertex 35.6723939350934 88.2983184326615 3.30200000000001
vertex 36.6883939350934 56.8023184326612 3.30200000000001
vertex 36.6883939350934 88.2983184326615 3.30200000000001
endloop
endfacet
facet normal 0.0 1.0 0.0
outer loop
vertex 35.6723939350934 56.8023184326612 8.89
vertex 36.6883939350934 56.8023184326612 3.30200000000001
vertex 35.6723939350934 56.8023184326612 3.30200000000001
endloop
endfacet
facet normal 0.0 1.0 0.0
outer loop
vertex 36.6883939350934 56.8023184326612 3.30200000000001
vertex 35.6723939350934 56.8023184326612 8.89
vertex 36.6883939350934 56.8023184326612 8.89
endloop
endfacet
facet normal -0.0 -1.0 -0.0
outer loop
vertex 36.6883939350934 88.2983184326615 8.89
vertex 35.6723939350934 88.2983184326615 3.30200000000001
vertex 36.6883939350934 88.2983184326615 3.30200000000001
endloop
endfacet
facet normal -0.0 -1.0 -0.0
outer loop
vertex 35.6723939350934 88.2983184326615 3.30200000000001
vertex 36.6883939350934 88.2983184326615 8.89
vertex 35.6723939350934 88.2983184326615 8.89
endloop
endfacet
facet normal 1.0 -1.10417053044627e-016 -2.25011529031879e-017
outer loop
vertex 36.6883939350934 52.7383184326614 1.778
vertex 36.6883939350934 56.8023184326612 3.30200000000001
vertex 36.6883939350934 52.7383184326614 6.35
endloop
endfacet
facet normal 1.0 -1.10417053044627e-016 -2.25011529031879e-017
outer loop
vertex 36.6883939350934 56.8023184326612 3.30200000000001
vertex 36.6883939350934 52.7383184326614 1.778
vertex 36.6883939350934 91.8543184326615 1.778
endloop
endfacet
facet normal 1.0 -1.10417053044627e-016 -2.25011529031879e-017
outer loop
vertex 36.6883939350934 52.7383184326614 6.35
vertex 36.6883939350934 56.8023184326612 3.30200000000001
vertex 36.6883939350934 54.0083184326614 6.35
endloop
endfacet
facet normal 1.0 -1.10417053044627e-016 -2.25011529031879e-017
outer loop
vertex 36.6883939350934 54.0083184326614 6.35
vertex 36.6883939350934 56.8023184326612 3.30200000000001
vertex 36.6883939350934 54.0083184326614 8.89
endloop
endfacet
facet normal 1.0 -1.10417053044627e-016 -2.25011529031879e-017
outer loop
vertex 36.6883939350934 56.8023184326612 3.30200000000001
vertex 36.6883939350934 91.8543184326615 1.778
vertex 36.6883939350934 88.2983184326615 3.30200000000001
endloop
endfacet
facet normal 1.0 -1.10417053044627e-016 -2.25011529031879e-017
outer loop
vertex 36.6883939350934 88.2983184326615 3.30200000000001
vertex 36.6883939350934 91.8543184326615 1.778
vertex 36.6883939350934 88.2983184326615 8.89
endloop
endfacet
facet normal 1.0 -1.10417053044627e-016 -2.25011529031879e-017
outer loop
vertex 36.6883939350934 88.2983184326615 8.89
vertex 36.6883939350934 91.8543184326615 1.778
vertex 36.6883939350934 90.5843184326615 6.35
endloop
endfacet
facet normal 1.0 -1.10417053044627e-016 -2.25011529031879e-017
outer loop
vertex 36.6883939350934 90.5843184326615 6.35
vertex 36.6883939350934 91.8543184326615 1.778
vertex 36.6883939350934 91.8543184326615 6.35000000000001
endloop
endfacet
facet normal 1.0 -1.10417053044627e-016 -2.25011529031879e-017
outer loop
vertex 36.6883939350934 90.5843184326615 8.89
vertex 36.6883939350934 88.2983184326615 8.89
vertex 36.6883939350934 90.5843184326615 6.35
endloop
endfacet
facet normal 1.0 -1.10417053044627e-016 -2.25011529031879e-017
outer loop
vertex 36.6883939350934 56.8023184326612 8.89
vertex 36.6883939350934 54.0083184326614 8.89
vertex 36.6883939350934 56.8023184326612 3.30200000000001
endloop
endfacet
facet normal -0.0 1.0 -0.0
outer loop
vertex 62.0883939350934 52.7383184326614 6.35
vertex 106.22395527841 52.7383184326614 6.35
vertex 36.6883939350934 52.7383184326614 6.35
endloop
endfacet
facet normal -0.0 1.0 -0.0
outer loop
vertex 106.22395527841 52.7383184326614 6.35
vertex 62.0883939350934 52.7383184326614 6.35
vertex 106.22395527841 52.7383184326614 8.89
endloop
endfacet
facet normal -0.0 1.0 -0.0
outer loop
vertex 106.22395527841 52.7383184326614 8.89
vertex 62.0883939350934 52.7383184326614 6.35
vertex 62.0883939350934 52.7383184326614 8.89
endloop
endfacet
facet normal -0.0 1.0 -0.0
outer loop
vertex 36.6883939350934 52.7383184326614 6.35
vertex 120.254393935093 52.7383184326614 1.778
vertex 36.6883939350934 52.7383184326614 1.778
endloop
endfacet
facet normal -0.0 1.0 -0.0
outer loop
vertex 120.254393935093 52.7383184326614 1.778
vertex 36.6883939350934 52.7383184326614 6.35
vertex 120.254393935093 52.7383184326614 6.35
endloop
endfacet
facet normal -0.0 1.0 -0.0
outer loop
vertex 120.254393935093 52.7383184326614 6.35
vertex 36.6883939350934 52.7383184326614 6.35
vertex 106.22395527841 52.7383184326614 6.35
endloop
endfacet
facet normal 0.0 -1.0 0.0
outer loop
vertex 120.254393935093 91.8543184326615 1.778
vertex 81.3923939350935 91.8543184326615 3.556
vertex 36.6883939350934 91.8543184326615 1.778
endloop
endfacet
facet normal 0.0 -1.0 0.0
outer loop
vertex 81.3923939350935 91.8543184326615 3.556
vertex 120.254393935093 91.8543184326615 1.778
vertex 120.254393935093 91.8543184326615 6.34189276355878
endloop
endfacet
facet normal 0.0 -1.0 0.0
outer loop
vertex 81.3923939350935 91.8543184326615 3.556
vertex 120.254393935093 91.8543184326615 6.34189276355878
vertex 106.22395527841 91.8543184326615 6.34189276355878
endloop
endfacet
facet normal 0.0 -1.0 0.0
outer loop
vertex 81.3923939350935 91.8543184326615 3.556
vertex 106.22395527841 91.8543184326615 6.34189276355878
vertex 81.3923939350935 91.8543184326615 8.89
endloop
endfacet
facet normal 0.0 -1.0 0.0
outer loop
vertex 81.3923939350935 91.8543184326615 8.89
vertex 106.22395527841 91.8543184326615 6.34189276355878
vertex 106.22395527841 91.8543184326615 8.89
endloop
endfacet
facet normal 0.0 -1.0 0.0
outer loop
vertex 72.2483939350934 91.8543184326615 8.89
vertex 62.0883939350932 91.8543184326615 6.35000000000001
vertex 72.2483939350934 91.8543184326615 3.556
endloop
endfacet
facet normal 0.0 -1.0 0.0
outer loop
vertex 62.0883939350932 91.8543184326615 6.35000000000001
vertex 72.2483939350934 91.8543184326615 8.89
vertex 62.0883939350932 91.8543184326615 8.89
endloop
endfacet
facet normal 0.0 -1.0 0.0
outer loop
vertex 36.6883939350934 91.8543184326615 1.778
vertex 72.2483939350934 91.8543184326615 3.556
vertex 36.6883939350934 91.8543184326615 6.35000000000001
endloop
endfacet
facet normal 0.0 -1.0 0.0
outer loop
vertex 72.2483939350934 91.8543184326615 3.556
vertex 36.6883939350934 91.8543184326615 1.778
vertex 81.3923939350935 91.8543184326615 3.556
endloop
endfacet
facet normal 0.0 -1.0 0.0
outer loop
vertex 36.6883939350934 91.8543184326615 6.35000000000001
vertex 72.2483939350934 91.8543184326615 3.556
vertex 62.0883939350932 91.8543184326615 6.35000000000001
endloop
endfacet
facet normal -0.0 -0.0 1.0
outer loop
vertex 35.6723939350934 93.1243184326615 8.89
vertex 36.6883939350934 91.8543184326615 8.89
vertex 72.2483939350934 93.1243184326615 8.89
endloop
endfacet
facet normal -0.0 -0.0 1.0
outer loop
vertex 36.6883939350934 91.8543184326615 8.89
vertex 35.6723939350934 93.1243184326615 8.89
vertex 35.6723939350934 88.2983184326615 8.89
endloop
endfacet
facet normal -0.0 -0.0 1.0
outer loop
vertex 36.6883939350934 91.8543184326615 8.89
vertex 35.6723939350934 88.2983184326615 8.89
vertex 36.6883939350934 88.2983184326615 8.89
endloop
endfacet
facet normal -0.0 -0.0 1.0
outer loop
vertex 36.6883939350934 91.8543184326615 8.89
vertex 36.6883939350934 88.2983184326615 8.89
vertex 36.6883939350934 90.5843184326615 8.89
endloop
endfacet
facet normal -0.0 -0.0 1.0
outer loop
vertex 72.2483939350934 93.1243184326615 8.89
vertex 36.6883939350934 91.8543184326615 8.89
vertex 62.0883939350932 91.8543184326615 8.89
endloop
endfacet
facet normal -0.0 -0.0 1.0
outer loop
vertex 72.2483939350934 93.1243184326615 8.89
vertex 62.0883939350932 91.8543184326615 8.89
vertex 72.2483939350934 91.8543184326615 8.89
endloop
endfacet
facet normal 0.0 0.0 1.0
outer loop
vertex 81.3923939350935 91.8543184326615 3.556
vertex 72.2483939350934 93.1243184326615 3.556
vertex 72.2483939350934 91.8543184326615 3.556
endloop
endfacet
facet normal 0.0 0.0 1.0
outer loop
vertex 72.2483939350934 93.1243184326615 3.556
vertex 81.3923939350935 91.8543184326615 3.556
vertex 81.3923939350935 93.1243184326615 3.556
endloop
endfacet
facet normal -1.0 0.0 -0.0
outer loop
vertex 81.3923939350935 93.1243184326615 8.89
vertex 81.3923939350935 91.8543184326615 3.556
vertex 81.3923939350935 91.8543184326615 8.89
endloop
endfacet
facet normal -1.0 0.0 -0.0
outer loop
vertex 81.3923939350935 91.8543184326615 3.556
vertex 81.3923939350935 93.1243184326615 8.89
vertex 81.3923939350935 93.1243184326615 3.556
endloop
endfacet
facet normal 1.0 0.0 0.0
outer loop
vertex 72.2483939350934 93.1243184326615 3.556
vertex 72.2483939350934 91.8543184326615 8.89
vertex 72.2483939350934 91.8543184326615 3.556
endloop
endfacet
facet normal 1.0 0.0 0.0
outer loop
vertex 72.2483939350934 91.8543184326615 8.89
vertex 72.2483939350934 93.1243184326615 3.556
vertex 72.2483939350934 93.1243184326615 8.89
endloop
endfacet
facet normal -1.0 0.0 0.0
outer loop
vertex 106.22395527841 91.8543184326615 11.43
vertex 106.22395527841 90.5843184326615 6.35000000000001
vertex 106.22395527841 90.5843184326615 11.43
endloop
endfacet
facet normal -1.0 0.0 0.0
outer loop
vertex 106.22395527841 90.5843184326615 6.35000000000001
vertex 106.22395527841 91.8543184326615 11.43
vertex 106.22395527841 91.0923184326615 6.35000000000001
endloop
endfacet
facet normal -1.0 0.0 0.0
outer loop
vertex 106.22395527841 91.0923184326615 6.35000000000001
vertex 106.22395527841 91.8543184326615 11.43
vertex 106.22395527841 91.8543184326615 6.34189276355878
endloop
endfacet
facet normal -1.0 0.0 0.0
outer loop
vertex 106.22395527841 91.8543184326615 6.34189276355878
vertex 106.22395527841 91.8543184326615 11.43
vertex 106.22395527841 91.8543184326615 8.89
endloop
endfacet
facet normal -0.0 -0.0 1.0
outer loop
vertex 121.270393935093 88.2983184326614 8.89
vertex 120.254393935093 90.5843184326615 8.89
vertex 120.254393935093 88.2983184326614 8.89
endloop
endfacet
facet normal -0.0 -0.0 1.0
outer loop
vertex 120.254393935093 90.5843184326615 8.89
vertex 121.270393935093 88.2983184326614 8.89
vertex 120.254393935093 91.8543184326615 8.89
endloop
endfacet
facet normal -0.0 -0.0 1.0
outer loop
vertex 106.22395527841 91.8543184326615 8.89
vertex 81.3923939350935 93.1243184326615 8.89
vertex 81.3923939350935 91.8543184326615 8.89
endloop
endfacet
facet normal -0.0 -0.0 1.0
outer loop
vertex 81.3923939350935 93.1243184326615 8.89
vertex 106.22395527841 91.8543184326615 8.89
vertex 121.270393935093 93.1243184326615 8.89
endloop
endfacet
facet normal -0.0 -0.0 1.0
outer loop
vertex 121.270393935093 93.1243184326615 8.89
vertex 106.22395527841 91.8543184326615 8.89
vertex 120.254393935093 91.8543184326615 8.89
endloop
endfacet
facet normal -0.0 -0.0 1.0
outer loop
vertex 121.270393935093 93.1243184326615 8.89
vertex 120.254393935093 91.8543184326615 8.89
vertex 121.270393935093 88.2983184326614 8.89
endloop
endfacet
facet normal -0.0 -0.0 1.0
outer loop
vertex 120.254393935093 90.5843184326615 11.43
vertex 106.22395527841 91.8543184326615 11.43
vertex 106.22395527841 90.5843184326615 11.43
endloop
endfacet
facet normal -0.0 -0.0 1.0
outer loop
vertex 106.22395527841 91.8543184326615 11.43
vertex 120.254393935093 90.5843184326615 11.43
vertex 120.254393935093 91.8543184326615 11.43
endloop
endfacet
facet normal -0.0 1.0 -0.0
outer loop
vertex 106.22395527841 91.8543184326615 11.43
vertex 120.254393935093 91.8543184326615 8.89
vertex 106.22395527841 91.8543184326615 8.89
endloop
endfacet
facet normal -0.0 1.0 -0.0
outer loop
vertex 120.254393935093 91.8543184326615 8.89
vertex 106.22395527841 91.8543184326615 11.43
vertex 120.254393935093 91.8543184326615 11.43
endloop
endfacet
facet normal 0.0 1.0 0.0
outer loop
vertex 106.22395527841 54.0083184326614 11.43
vertex 120.254393935093 54.0083184326614 6.35
vertex 106.22395527841 54.0083184326614 6.35
endloop
endfacet
facet normal 0.0 1.0 0.0
outer loop
vertex 120.254393935093 54.0083184326614 6.35
vertex 106.22395527841 54.0083184326614 11.43
vertex 120.254393935093 54.0083184326614 8.89
endloop
endfacet
facet normal 0.0 1.0 0.0
outer loop
vertex 120.254393935093 54.0083184326614 8.89
vertex 106.22395527841 54.0083184326614 11.43
vertex 120.254393935093 54.0083184326614 11.43
endloop
endfacet
facet normal -1.0 0.0 0.0
outer loop
vertex 106.22395527841 54.0083184326614 11.43
vertex 106.22395527841 52.7383184326614 8.89
vertex 106.22395527841 52.7383184326614 11.43
endloop
endfacet
facet normal -1.0 0.0 0.0
outer loop
vertex 106.22395527841 52.7383184326614 8.89
vertex 106.22395527841 54.0083184326614 11.43
vertex 106.22395527841 52.7383184326614 6.35
endloop
endfacet
facet normal -1.0 0.0 0.0
outer loop
vertex 106.22395527841 52.7383184326614 6.35
vertex 106.22395527841 54.0083184326614 11.43
vertex 106.22395527841 54.0083184326614 6.35
endloop
endfacet
facet normal -0.0 -0.0 1.0
outer loop
vertex 120.254393935093 52.7383184326614 11.43
vertex 106.22395527841 54.0083184326614 11.43
vertex 106.22395527841 52.7383184326614 11.43
endloop
endfacet
facet normal -0.0 -0.0 1.0
outer loop
vertex 106.22395527841 54.0083184326614 11.43
vertex 120.254393935093 52.7383184326614 11.43
vertex 120.254393935093 54.0083184326614 11.43
endloop
endfacet
facet normal 0.0 -1.0 0.0
outer loop
vertex 120.254393935093 52.7383184326614 11.43
vertex 106.22395527841 52.7383184326614 8.89
vertex 120.254393935093 52.7383184326614 8.89
endloop
endfacet
facet normal 0.0 -1.0 0.0
outer loop
vertex 106.22395527841 52.7383184326614 8.89
vertex 120.254393935093 52.7383184326614 11.43
vertex 106.22395527841 52.7383184326614 11.43
endloop
endfacet
facet normal 1.0 0.0 0.0
outer loop
vertex 62.0883939350932 90.5843184326615 6.35000000000001
vertex 62.0883939350932 91.8543184326615 11.43
vertex 62.0883939350932 90.5843184326615 11.43
endloop
endfacet
facet normal 1.0 0.0 0.0
outer loop
vertex 62.0883939350932 91.8543184326615 11.43
vertex 62.0883939350932 90.5843184326615 6.35000000000001
vertex 62.0883939350932 91.8543184326615 6.35000000000001
endloop
endfacet
facet normal 1.0 0.0 0.0
outer loop
vertex 62.0883939350932 91.8543184326615 11.43
vertex 62.0883939350932 91.8543184326615 6.35000000000001
vertex 62.0883939350932 91.8543184326615 8.89
endloop
endfacet
facet normal -0.0 1.0 -0.0
outer loop
vertex 36.6883939350934 91.8543184326615 11.43
vertex 62.0883939350932 91.8543184326615 8.89
vertex 36.6883939350934 91.8543184326615 8.89
endloop
endfacet
facet normal -0.0 1.0 -0.0
outer loop
vertex 62.0883939350932 91.8543184326615 8.89
vertex 36.6883939350934 91.8543184326615 11.43
vertex 62.0883939350932 91.8543184326615 11.43
endloop
endfacet
facet normal -2.22044604925031e-016 -1.0 -1.11022302462516e-015
outer loop
vertex 62.0883939350932 90.5843184326615 6.35000000000001
vertex 36.6883939350934 90.5843184326615 8.89
vertex 36.6883939350934 90.5843184326615 6.35
endloop
endfacet
facet normal -2.22044604925031e-016 -1.0 -1.11022302462516e-015
outer loop
vertex 36.6883939350934 90.5843184326615 8.89
vertex 62.0883939350932 90.5843184326615 6.35000000000001
vertex 62.0883939350932 90.5843184326615 11.43
endloop
endfacet
facet normal -2.22044604925031e-016 -1.0 -1.11022302462516e-015
outer loop
vertex 36.6883939350934 90.5843184326615 8.89
vertex 62.0883939350932 90.5843184326615 11.43
vertex 36.6883939350934 90.5843184326615 11.43
endloop
endfacet
facet normal -2.64558442440636e-018 9.58642110818455e-017 1.0
outer loop
vertex 35.6723939350934 51.4683184326614 8.89
vertex 36.6883939350934 52.7383184326614 8.89
vertex 35.6723939350934 56.8023184326612 8.89
endloop
endfacet
facet normal -2.64558442440636e-018 9.58642110818455e-017 1.0
outer loop
vertex 36.6883939350934 52.7383184326614 8.89
vertex 35.6723939350934 51.4683184326614 8.89
vertex 121.270393935093 51.4683184326614 8.89
endloop
endfacet
facet normal -2.64558442440636e-018 9.58642110818455e-017 1.0
outer loop
vertex 35.6723939350934 56.8023184326612 8.89
vertex 36.6883939350934 52.7383184326614 8.89
vertex 36.6883939350934 54.0083184326614 8.89
endloop
endfacet
facet normal -2.64558442440636e-018 9.58642110818455e-017 1.0
outer loop
vertex 36.6883939350934 52.7383184326614 8.89
vertex 121.270393935093 51.4683184326614 8.89
vertex 62.0883939350934 52.7383184326614 8.89
endloop
endfacet
facet normal -2.64558442440636e-018 9.58642110818455e-017 1.0
outer loop
vertex 62.0883939350934 52.7383184326614 8.89
vertex 121.270393935093 51.4683184326614 8.89
vertex 106.22395527841 52.7383184326614 8.89
endloop
endfacet
facet normal -2.64558442440636e-018 9.58642110818455e-017 1.0
outer loop
vertex 106.22395527841 52.7383184326614 8.89
vertex 121.270393935093 51.4683184326614 8.89
vertex 120.254393935093 52.7383184326614 8.89
endloop
endfacet
facet normal -2.64558442440636e-018 9.58642110818455e-017 1.0
outer loop
vertex 120.254393935093 52.7383184326614 8.89
vertex 121.270393935093 51.4683184326614 8.89
vertex 120.254393935093 54.0083184326614 8.89
endloop
endfacet
facet normal -2.64558442440636e-018 9.58642110818455e-017 1.0
outer loop
vertex 120.254393935093 54.0083184326614 8.89
vertex 121.270393935093 51.4683184326614 8.89
vertex 120.254393935093 56.8023184326615 8.89
endloop
endfacet
facet normal -2.64558442440636e-018 9.58642110818455e-017 1.0
outer loop
vertex 120.254393935093 56.8023184326615 8.89
vertex 121.270393935093 51.4683184326614 8.89
vertex 121.270393935093 56.8023184326615 8.89
endloop
endfacet
facet normal -2.64558442440636e-018 9.58642110818455e-017 1.0
outer loop
vertex 36.6883939350934 56.8023184326612 8.89
vertex 35.6723939350934 56.8023184326612 8.89
vertex 36.6883939350934 54.0083184326614 8.89
endloop
endfacet
facet normal -0.0 -0.0 1.0
outer loop
vertex 62.0883939350934 52.7383184326614 11.43
vertex 36.6883939350934 54.0083184326614 11.43
vertex 36.6883939350934 52.7383184326614 11.43
endloop
endfacet
facet normal -0.0 -0.0 1.0
outer loop
vertex 36.6883939350934 54.0083184326614 11.43
vertex 62.0883939350934 52.7383184326614 11.43
vertex 62.0883939350934 54.0083184326614 11.43
endloop
endfacet
facet normal 1.0 -0.0 -0.0
outer loop
vertex 62.0883939350934 54.0083184326614 6.35
vertex 62.0883939350934 52.7383184326614 8.89
vertex 62.0883939350934 52.7383184326614 6.35
endloop
endfacet
facet normal 1.0 -0.0 -0.0
outer loop
vertex 62.0883939350934 52.7383184326614 8.89
vertex 62.0883939350934 54.0083184326614 6.35
vertex 62.0883939350934 52.7383184326614 11.43
endloop
endfacet
facet normal 1.0 -0.0 -0.0
outer loop
vertex 62.0883939350934 52.7383184326614 11.43
vertex 62.0883939350934 54.0083184326614 6.35
vertex 62.0883939350934 54.0083184326614 11.43
endloop
endfacet
facet normal 0.0 1.0 0.0
outer loop
vertex 36.6883939350934 54.0083184326614 8.89
vertex 62.0883939350934 54.0083184326614 6.35
vertex 36.6883939350934 54.0083184326614 6.35
endloop
endfacet
facet normal 0.0 1.0 0.0
outer loop
vertex 62.0883939350934 54.0083184326614 6.35
vertex 36.6883939350934 54.0083184326614 8.89
vertex 62.0883939350934 54.0083184326614 11.43
endloop
endfacet
facet normal 0.0 1.0 0.0
outer loop
vertex 62.0883939350934 54.0083184326614 11.43
vertex 36.6883939350934 54.0083184326614 8.89
vertex 36.6883939350934 54.0083184326614 11.43
endloop
endfacet
facet normal 0.0 -1.0 0.0
outer loop
vertex 62.0883939350934 52.7383184326614 8.89
vertex 36.6883939350934 52.7383184326614 11.43
vertex 36.6883939350934 52.7383184326614 8.89
endloop
endfacet
facet normal 0.0 -1.0 0.0
outer loop
vertex 36.6883939350934 52.7383184326614 11.43
vertex 62.0883939350934 52.7383184326614 8.89
vertex 62.0883939350934 52.7383184326614 11.43
endloop
endfacet
facet normal -0.0 -0.0 1.0
outer loop
vertex 62.0883939350932 90.5843184326615 11.43
vertex 36.6883939350934 91.8543184326615 11.43
vertex 36.6883939350934 90.5843184326615 11.43
endloop
endfacet
facet normal -0.0 -0.0 1.0
outer loop
vertex 36.6883939350934 91.8543184326615 11.43
vertex 62.0883939350932 90.5843184326615 11.43
vertex 62.0883939350932 91.8543184326615 11.43
endloop
endfacet
facet normal 5.02472971720789e-017 3.70074341541727e-015 -1.0
outer loop
vertex 120.254393935093 54.0083184326614 6.35
vertex 106.22395527841 52.7383184326614 6.35
vertex 106.22395527841 54.0083184326614 6.35
endloop
endfacet
facet normal 5.02472971720789e-017 3.70074341541727e-015 -1.0
outer loop
vertex 106.22395527841 52.7383184326614 6.35
vertex 120.254393935093 54.0083184326614 6.35
vertex 120.254393935093 52.7383184326614 6.35
endloop
endfacet
facet normal 6.93889390390723e-017 2.31296463463579e-015 -1.0
outer loop
vertex 62.0883939350934 54.0083184326614 6.35
vertex 36.6883939350934 52.7383184326614 6.35
vertex 36.6883939350934 54.0083184326614 6.35
endloop
endfacet
facet normal 6.93889390390723e-017 2.31296463463579e-015 -1.0
outer loop
vertex 36.6883939350934 52.7383184326614 6.35
vertex 62.0883939350934 54.0083184326614 6.35
vertex 62.0883939350934 52.7383184326614 6.35
endloop
endfacet
facet normal 5.55111512312578e-017 1.85037170770863e-015 -1.0
outer loop
vertex 62.0883939350932 91.8543184326615 6.35000000000001
vertex 36.6883939350934 90.5843184326615 6.35
vertex 36.6883939350934 91.8543184326615 6.35000000000001
endloop
endfacet
facet normal 5.55111512312578e-017 1.85037170770863e-015 -1.0
outer loop
vertex 36.6883939350934 90.5843184326615 6.35
vertex 62.0883939350932 91.8543184326615 6.35000000000001
vertex 62.0883939350932 90.5843184326615 6.35000000000001
endloop
endfacet
facet normal -0.000288911900372953 -0.00531963345848887 -0.999985808914197
outer loop
vertex 120.254393935093 91.8543184326615 6.34189276355878
vertex 106.22395527841 91.0923184326615 6.35000000000001
vertex 106.22395527841 91.8543184326615 6.34189276355878
endloop
endfacet
facet normal -0.000288911900372953 -0.00531963345848887 -0.999985808914197
outer loop
vertex 106.22395527841 91.0923184326615 6.35000000000001
vertex 120.254393935093 91.8543184326615 6.34189276355878
vertex 120.254393935093 91.0923184326615 6.34189276355878
endloop
endfacet
facet normal 1.0 -0.0 -0.0
outer loop
vertex 120.254393935093 91.8543184326615 8.89
vertex 120.254393935093 90.5843184326615 11.43
vertex 120.254393935093 90.5843184326615 8.89
endloop
endfacet
facet normal 1.0 -0.0 -0.0
outer loop
vertex 120.254393935093 90.5843184326615 11.43
vertex 120.254393935093 91.8543184326615 8.89
vertex 120.254393935093 91.8543184326615 11.43
endloop
endfacet
facet normal -1.0 0.0 0.0
outer loop
vertex 36.6883939350934 91.8543184326615 11.43
vertex 36.6883939350934 90.5843184326615 8.89
vertex 36.6883939350934 90.5843184326615 11.43
endloop
endfacet
facet normal -1.0 0.0 0.0
outer loop
vertex 36.6883939350934 90.5843184326615 8.89
vertex 36.6883939350934 91.8543184326615 11.43
vertex 36.6883939350934 91.8543184326615 8.89
endloop
endfacet
facet normal -1.0 -3.70074341541727e-015 -1.11022302462516e-015
outer loop
vertex 36.6883939350934 54.0083184326614 11.43
vertex 36.6883939350934 52.7383184326614 8.89
vertex 36.6883939350934 52.7383184326614 11.43
endloop
endfacet
facet normal -1.0 -3.70074341541727e-015 -1.11022302462516e-015
outer loop
vertex 36.6883939350934 52.7383184326614 8.89
vertex 36.6883939350934 54.0083184326614 11.43
vertex 36.6883939350934 54.0083184326614 8.89
endloop
endfacet
facet normal 1.0 -0.0 -0.0
outer loop
vertex 120.254393935093 54.0083184326614 8.89
vertex 120.254393935093 52.7383184326614 11.43
vertex 120.254393935093 52.7383184326614 8.89
endloop
endfacet
facet normal 1.0 -0.0 -0.0
outer loop
vertex 120.254393935093 52.7383184326614 11.43
vertex 120.254393935093 54.0083184326614 8.89
vertex 120.254393935093 54.0083184326614 11.43
endloop
endfacet
facet normal -1.0 0.0 0.0
outer loop
vertex 120.254393935093 56.8023184326615 8.89
vertex 120.254393935093 54.0083184326614 6.35
vertex 120.254393935093 54.0083184326614 8.89
endloop
endfacet
facet normal -1.0 0.0 0.0
outer loop
vertex 120.254393935093 90.5843184326615 8.89
vertex 120.254393935093 88.2983184326614 3.302
vertex 120.254393935093 88.2983184326614 8.89
endloop
endfacet
facet normal -1.0 0.0 0.0
outer loop
vertex 120.254393935093 54.0083184326614 6.35
vertex 120.254393935093 52.7383184326614 1.778
vertex 120.254393935093 52.7383184326614 6.35
endloop
endfacet
facet normal -1.0 0.0 0.0
outer loop
vertex 120.254393935093 52.7383184326614 1.778
vertex 120.254393935093 54.0083184326614 6.35
vertex 120.254393935093 56.8023184326615 3.302
endloop
endfacet
facet normal -1.0 0.0 0.0
outer loop
vertex 120.254393935093 52.7383184326614 1.778
vertex 120.254393935093 56.8023184326615 3.302
vertex 120.254393935093 91.8543184326615 1.778
endloop
endfacet
facet normal -1.0 0.0 0.0
outer loop
vertex 120.254393935093 56.8023184326615 3.302
vertex 120.254393935093 54.0083184326614 6.35
vertex 120.254393935093 56.8023184326615 8.89
endloop
endfacet
facet normal -1.0 0.0 0.0
outer loop
vertex 120.254393935093 91.8543184326615 1.778
vertex 120.254393935093 56.8023184326615 3.302
vertex 120.254393935093 88.2983184326614 3.302
endloop
endfacet
facet normal -1.0 0.0 0.0
outer loop
vertex 120.254393935093 91.8543184326615 1.778
vertex 120.254393935093 88.2983184326614 3.302
vertex 120.254393935093 90.5843184326615 6.34189276355878
endloop
endfacet
facet normal -1.0 0.0 0.0
outer loop
vertex 120.254393935093 90.5843184326615 6.34189276355878
vertex 120.254393935093 88.2983184326614 3.302
vertex 120.254393935093 90.5843184326615 8.89
endloop
endfacet
facet normal -1.0 0.0 0.0
outer loop
vertex 120.254393935093 91.8543184326615 1.778
vertex 120.254393935093 90.5843184326615 6.34189276355878
vertex 120.254393935093 91.0923184326615 6.34189276355878
endloop
endfacet
facet normal -1.0 0.0 0.0
outer loop
vertex 120.254393935093 91.8543184326615 1.778
vertex 120.254393935093 91.0923184326615 6.34189276355878
vertex 120.254393935093 91.8543184326615 6.34189276355878
endloop
endfacet
facet normal 1.0 0.0 0.0
outer loop
vertex 121.270393935093 51.4683184326614 0.0
vertex 121.270393935093 56.8023184326615 3.302
vertex 121.270393935093 51.4683184326614 8.89
endloop
endfacet
facet normal 1.0 0.0 0.0
outer loop
vertex 121.270393935093 56.8023184326615 3.302
vertex 121.270393935093 51.4683184326614 0.0
vertex 121.270393935093 93.1243184326615 0.0
endloop
endfacet
facet normal 1.0 0.0 0.0
outer loop
vertex 121.270393935093 56.8023184326615 3.302
vertex 121.270393935093 93.1243184326615 0.0
vertex 121.270393935093 88.2983184326614 3.302
endloop
endfacet
facet normal 1.0 0.0 0.0
outer loop
vertex 121.270393935093 88.2983184326614 3.302
vertex 121.270393935093 93.1243184326615 0.0
vertex 121.270393935093 88.2983184326614 8.89
endloop
endfacet
facet normal 1.0 0.0 0.0
outer loop
vertex 121.270393935093 88.2983184326614 8.89
vertex 121.270393935093 93.1243184326615 0.0
vertex 121.270393935093 93.1243184326615 8.89
endloop
endfacet
facet normal 1.0 0.0 0.0
outer loop
vertex 121.270393935093 56.8023184326615 8.89
vertex 121.270393935093 51.4683184326614 8.89
vertex 121.270393935093 56.8023184326615 3.302
endloop
endfacet
facet normal -0.0 -1.0 -0.0
outer loop
vertex 121.270393935093 51.4683184326614 8.89
vertex 35.6723939350934 51.4683184326614 1.71225879198951e-017
vertex 121.270393935093 51.4683184326614 0.0
endloop
endfacet
facet normal -0.0 -1.0 -0.0
outer loop
vertex 35.6723939350934 51.4683184326614 1.71225879198951e-017
vertex 121.270393935093 51.4683184326614 8.89
vertex 35.6723939350934 51.4683184326614 8.89
endloop
endfacet
facet normal -1.0 6.37597805491546e-017 6.7411763464154e-017
outer loop
vertex 35.6723939350934 93.1243184326615 8.89
vertex 35.6723939350934 88.2983184326615 3.30200000000001
vertex 35.6723939350934 88.2983184326615 8.89
endloop
endfacet
facet normal -1.0 6.37597805491546e-017 6.7411763464154e-017
outer loop
vertex 35.6723939350934 56.8023184326612 8.89
vertex 35.6723939350934 51.4683184326614 1.71225879198951e-017
vertex 35.6723939350934 51.4683184326614 8.89
endloop
endfacet
facet normal -1.0 6.37597805491546e-017 6.7411763464154e-017
outer loop
vertex 35.6723939350934 51.4683184326614 1.71225879198951e-017
vertex 35.6723939350934 56.8023184326612 8.89
vertex 35.6723939350934 56.8023184326612 3.30200000000001
endloop
endfacet
facet normal -1.0 6.37597805491546e-017 6.7411763464154e-017
outer loop
vertex 35.6723939350934 51.4683184326614 1.71225879198951e-017
vertex 35.6723939350934 56.8023184326612 3.30200000000001
vertex 35.6723939350934 93.1243184326615 1.71225879198951e-017
endloop
endfacet
facet normal -1.0 6.37597805491546e-017 6.7411763464154e-017
outer loop
vertex 35.6723939350934 93.1243184326615 1.71225879198951e-017
vertex 35.6723939350934 56.8023184326612 3.30200000000001
vertex 35.6723939350934 88.2983184326615 3.30200000000001
endloop
endfacet
facet normal -1.0 6.37597805491546e-017 6.7411763464154e-017
outer loop
vertex 35.6723939350934 93.1243184326615 1.71225879198951e-017
vertex 35.6723939350934 88.2983184326615 3.30200000000001
vertex 35.6723939350934 93.1243184326615 8.89
endloop
endfacet
facet normal 0.0 1.0 0.0
outer loop
vertex 35.6723939350934 93.1243184326615 8.89
vertex 72.2483939350934 93.1243184326615 3.556
vertex 35.6723939350934 93.1243184326615 1.71225879198951e-017
endloop
endfacet
facet normal 0.0 1.0 0.0
outer loop
vertex 72.2483939350934 93.1243184326615 3.556
vertex 35.6723939350934 93.1243184326615 8.89
vertex 72.2483939350934 93.1243184326615 8.89
endloop
endfacet
facet normal 0.0 1.0 0.0
outer loop
vertex 121.270393935093 93.1243184326615 0.0
vertex 81.3923939350935 93.1243184326615 3.556
vertex 121.270393935093 93.1243184326615 8.89
endloop
endfacet
facet normal 0.0 1.0 0.0
outer loop
vertex 81.3923939350935 93.1243184326615 3.556
vertex 121.270393935093 93.1243184326615 0.0
vertex 35.6723939350934 93.1243184326615 1.71225879198951e-017
endloop
endfacet
facet normal 0.0 1.0 0.0
outer loop
vertex 81.3923939350935 93.1243184326615 3.556
vertex 35.6723939350934 93.1243184326615 1.71225879198951e-017
vertex 72.2483939350934 93.1243184326615 3.556
endloop
endfacet
facet normal 0.0 1.0 0.0
outer loop
vertex 121.270393935093 93.1243184326615 8.89
vertex 81.3923939350935 93.1243184326615 3.556
vertex 81.3923939350935 93.1243184326615 8.89
endloop
endfacet
facet normal 0.0 -1.0 0.0
outer loop
vertex 120.254393935093 90.5843184326615 8.89
vertex 106.22395527841 90.5843184326615 6.35000000000001
vertex 120.254393935093 90.5843184326615 6.34189276355878
endloop
endfacet
facet normal 0.0 -1.0 0.0
outer loop
vertex 106.22395527841 90.5843184326615 6.35000000000001
vertex 120.254393935093 90.5843184326615 8.89
vertex 106.22395527841 90.5843184326615 11.43
endloop
endfacet
facet normal 0.0 -1.0 0.0
outer loop
vertex 106.22395527841 90.5843184326615 11.43
vertex 120.254393935093 90.5843184326615 8.89
vertex 120.254393935093 90.5843184326615 11.43
endloop
endfacet
facet normal -0.000577831904343322 -0.0 -0.999999833055131
outer loop
vertex 120.254393935093 91.0923184326615 6.34189276355878
vertex 106.22395527841 90.5843184326615 6.35000000000001
vertex 106.22395527841 91.0923184326615 6.35000000000001
endloop
endfacet
facet normal -0.000577831904343322 -0.0 -0.999999833055131
outer loop
vertex 106.22395527841 90.5843184326615 6.35000000000001
vertex 120.254393935093 91.0923184326615 6.34189276355878
vertex 120.254393935093 90.5843184326615 6.34189276355878
endloop
endfacet
facet normal -0.0 -0.0 1.0
outer loop
vertex 120.254393935093 52.7383184326614 1.778
vertex 36.6883939350934 91.8543184326615 1.778
vertex 36.6883939350934 52.7383184326614 1.778
endloop
endfacet
facet normal -0.0 -0.0 1.0
outer loop
vertex 36.6883939350934 91.8543184326615 1.778
vertex 120.254393935093 52.7383184326614 1.778
vertex 120.254393935093 91.8543184326615 1.778
endloop
endfacet
facet normal -2.00034906421822e-019 7.33379114718354e-051 -1.0
outer loop
vertex 121.270393935093 93.1243184326615 0.0
vertex 35.6723939350934 51.4683184326614 1.71225879198951e-017
vertex 35.6723939350934 93.1243184326615 1.71225879198951e-017
endloop
endfacet
facet normal -2.00034906421822e-019 7.33379114718354e-051 -1.0
outer loop
vertex 35.6723939350934 51.4683184326614 1.71225879198951e-017
vertex 121.270393935093 93.1243184326615 0.0
vertex 121.270393935093 51.4683184326614 0.0
endloop
endfacet
endsolid tenoxvga-top-11
