G75*
G70*
%OFA0B0*%
%FSLAX24Y24*%
%IPPOS*%
%LPD*%
%AMOC8*
5,1,8,0,0,1.08239X$1,22.5*
%
%ADD10R,0.0512X0.0591*%
%ADD11R,0.0591X0.0512*%
%ADD12R,0.0866X0.1024*%
%ADD13R,0.1024X0.0866*%
%ADD14R,0.0866X0.0236*%
%ADD15R,0.0354X0.0138*%
%ADD16R,0.0390X0.0120*%
D10*
X009826Y004939D03*
X010495Y004939D03*
X011834Y005136D03*
X012503Y005136D03*
X018310Y006947D03*
X018979Y006947D03*
X018900Y008069D03*
X018231Y008069D03*
X023282Y008399D03*
X023952Y008399D03*
X027576Y009947D03*
X028245Y009947D03*
X028237Y010860D03*
X027568Y010860D03*
X027570Y011878D03*
X028239Y011878D03*
X024589Y012203D03*
X023920Y012203D03*
X023928Y012907D03*
X024597Y012907D03*
X024582Y013699D03*
X023912Y013699D03*
X021491Y015100D03*
X020822Y015100D03*
X010613Y012399D03*
X009944Y012399D03*
X009810Y010785D03*
X010479Y010785D03*
X010436Y009821D03*
X009767Y009821D03*
D11*
X009393Y001730D03*
X009393Y002399D03*
X023019Y005352D03*
X023019Y006022D03*
X022999Y006962D03*
X022999Y007632D03*
X019645Y009061D03*
X019645Y009730D03*
X011774Y009959D03*
X011774Y009289D03*
X021152Y013333D03*
X021152Y014002D03*
D12*
X018330Y011455D03*
X018330Y009486D03*
X024991Y008203D03*
X026983Y008273D03*
X026983Y006305D03*
X024991Y006234D03*
D13*
X024830Y010848D03*
X022861Y010848D03*
D14*
X025573Y012714D03*
X025573Y013214D03*
X025573Y013714D03*
X025573Y014214D03*
X027620Y014214D03*
X027620Y013714D03*
X027620Y013214D03*
X027620Y012714D03*
D15*
X012355Y008049D03*
X012355Y007793D03*
X012355Y007537D03*
X012355Y007281D03*
X012355Y007025D03*
X012355Y006770D03*
X012355Y006514D03*
X010052Y006514D03*
X010052Y006770D03*
X010052Y007025D03*
X010052Y007281D03*
X010052Y007537D03*
X010052Y007793D03*
X010052Y008049D03*
D16*
X010330Y003905D03*
X010330Y003649D03*
X010330Y003394D03*
X010330Y003138D03*
X010330Y002882D03*
X010330Y002626D03*
X010330Y002370D03*
X010330Y002114D03*
X012628Y002114D03*
X012628Y002370D03*
X012628Y002626D03*
X012628Y002882D03*
X012628Y003138D03*
X012628Y003394D03*
X012628Y003649D03*
X012628Y003905D03*
M02*
