%
M48
M72
T01C0.0197
T02C0.0236
T03C0.0354
T04C0.0394
T05C0.0400
T06C0.0433
T07C0.1102
T08C0.1120
%
T01
X8822Y1730
X11853Y2734
X11007Y3207
X11440Y3443
X11834Y4191
X12208Y4525
X14373Y5273
X13408Y6159
X11420Y7104
X10908Y7852
X11302Y8561
X9412Y7518
X8979Y5451
X9826Y4348
X9215Y3187
X17188Y6612
X23802Y6691
X26774Y10470
X22109Y12852
X9786Y11455
T02
X11282Y11494
X9196Y8659
X12936Y6789
X10692Y6533
X14412Y2518
X15711Y2498
X17208Y2498
X17286Y1612
X25995Y6120
X22149Y7655
X20298Y8069
X22149Y9722
X23920Y11494
X26341Y12695
X26302Y13226
X26479Y13766
X24629Y14427
X23192Y13679
X20180Y15096
X19649Y11474
X29432Y15018
T03
X30503Y10188
X31503Y9738
X30503Y9288
X31503Y8838
X30503Y8388
X31503Y7938
X30503Y7488
X31503Y7038
X30503Y6588
X31503Y6138
X29503Y6138
X29503Y7038
X29503Y7938
X29503Y8838
X29503Y9738
X8062Y9797
X7062Y10247
X6062Y9797
X7062Y9347
X8062Y8897
X7062Y8447
X6062Y8897
X6062Y7997
X7062Y7547
X8062Y7997
X8062Y7097
X7062Y6647
X6062Y7097
X6062Y6197
X8062Y6197
T04
X17995Y6022
X19845Y4840
X17995Y3659
T05
X15948Y6427
X14353Y6407
X14353Y7407
X15948Y7427
T06
X21204Y3915
X22204Y3915
X25204Y3915
X26204Y3915
X27204Y3915
T07
X30503Y3112
X30503Y12955
T08
X7062Y3171
X7062Y13014
M30
